<svg width="157" height="89" viewBox="0 0 157 89" fill="none" xmlns="http://www.w3.org/2000/svg">
<g clip-path="url(#clip0_54_307)">
<path d="M138.032 7.2476V2.90365H139.882C140.065 2.90081 140.246 2.94275 140.41 3.02599C140.568 3.10593 140.709 3.21557 140.826 3.34913C140.944 3.48513 141.037 3.64143 141.102 3.81076C141.167 3.97429 141.2 4.149 141.201 4.32548C141.202 4.51428 141.167 4.70148 141.099 4.87713C141.035 5.05018 140.936 5.20746 140.808 5.33876C140.681 5.46535 140.526 5.55946 140.356 5.61343L141.357 7.26607H140.602L139.681 5.75423H138.696V7.2476H138.032ZM138.71 5.13102H139.884C140.002 5.13257 140.118 5.09356 140.212 5.02023C140.31 4.94202 140.388 4.83959 140.438 4.72248C140.494 4.59503 140.523 4.4563 140.521 4.31625C140.523 4.18112 140.492 4.04762 140.432 3.92707C140.373 3.80653 140.285 3.7025 140.178 3.6238C140.082 3.55165 139.965 3.51283 139.846 3.51301H138.716L138.71 5.13102Z" fill="white"/>
<path d="M139.435 9.69425C138.556 9.69197 137.698 9.42385 136.969 8.92374C136.24 8.42363 135.672 7.71395 135.337 6.88426C135.002 6.05458 134.915 5.14208 135.087 4.26195C135.259 3.38181 135.682 2.57349 136.303 1.939C136.925 1.30451 137.716 0.872306 138.577 0.696926C139.439 0.521547 140.332 0.610858 141.144 0.953588C141.955 1.29632 142.65 1.8771 143.139 2.62264C143.628 3.36817 143.89 4.24504 143.891 5.14257C143.892 5.74067 143.777 6.33301 143.553 6.88567C143.33 7.43833 143.001 7.94045 142.587 8.36326C142.173 8.78608 141.682 9.12128 141.141 9.34967C140.6 9.57806 140.02 9.69516 139.435 9.69425V9.69425ZM139.435 1.11945C138.654 1.11945 137.891 1.35594 137.242 1.79902C136.593 2.2421 136.087 2.87187 135.789 3.60868C135.49 4.3455 135.412 5.15627 135.564 5.93847C135.716 6.72067 136.092 7.43916 136.644 8.0031C137.196 8.56703 137.899 8.95108 138.665 9.10666C139.43 9.26225 140.224 9.1824 140.945 8.8772C141.666 8.572 142.282 8.05517 142.716 7.39205C143.15 6.72893 143.381 5.94932 143.381 5.1518C143.382 4.08131 142.966 3.05437 142.226 2.29655C141.486 1.53874 140.482 1.11205 139.435 1.11022V1.11945Z" fill="white"/>
<path d="M0 47.211V1.29257H10.3909V21.0827L26.8356 1.29257H38.4802L21.6447 21.7936L39.6187 47.211H27.7211L15.0713 28.7781L10.3909 33.6991V47.2156L0 47.211Z" fill="white"/>
<path d="M156.159 25.0596V29.4105H149.182V37.1451H144.452V29.4105H137.474V25.0596H144.452V17.325H149.182V25.0596H156.159Z" fill="white"/>
<path d="M72.5104 21.3158C72.2659 19.905 71.7795 18.5493 71.0738 17.3112C70.3245 16.0257 69.2406 14.9781 67.9429 14.2852C66.5695 13.5158 64.7443 13.1311 62.4674 13.1311C60.1659 13.1031 57.8935 13.6582 55.8533 14.7468C53.8634 15.8144 52.1907 17.4088 51.0103 19.3631V0H40.8859V47.211H51.0103V28.0349C51.4184 26.9014 52.0469 25.8642 52.8581 24.9858C53.6071 24.1552 54.4972 23.4702 55.4851 22.9638C56.2754 22.5293 57.1523 22.2846 58.049 22.2483C59.4811 22.2483 60.6301 22.7553 61.4961 23.7694C62.362 24.7834 62.7949 26.3668 62.7949 28.5196V47.2156H72.9215V38.9063C71.6449 36.169 70.9484 33.1872 70.8776 30.1559C70.8067 27.1246 71.3631 24.1122 72.5104 21.3158V21.3158Z" fill="white"/>
<path d="M131.106 12.741H130.06C128.077 12.7841 126.179 13.4527 124.366 14.7468C122.552 16.0409 121.075 17.8297 119.934 20.1133V13.6504H110.631V19.2731C112.34 22.462 113.236 26.0391 113.236 29.6748C113.236 33.3105 112.34 36.8876 110.631 40.0765V47.211H120.758V26.8392C121.644 25.2882 123.074 24.1133 125.05 23.3147C127.171 22.4903 129.426 22.0838 131.696 22.1167V12.8056C131.502 12.7601 131.304 12.7384 131.106 12.741V12.741Z" fill="white"/>
<path d="M92.0521 37.8168C96.0805 37.8168 99.3461 34.48 99.3461 30.3638C99.3461 26.2476 96.0805 22.9108 92.0521 22.9108C88.0238 22.9108 84.7582 26.2476 84.7582 30.3638C84.7582 34.48 88.0238 37.8168 92.0521 37.8168Z" fill="white"/>
</g>
<path d="M1.37274 69.9449C1.37274 68.5286 1.61243 67.1449 2.0918 65.794C2.59296 64.4212 3.31202 63.1792 4.24898 62.0679C5.18594 60.9349 6.34079 60.0415 7.71354 59.3878C9.08629 58.7123 10.6443 58.3746 12.3874 58.3746C14.4575 58.3746 16.2224 58.8539 17.6823 59.8127C19.164 60.7497 20.2535 61.959 20.9508 63.4407L19.1531 64.552C18.652 63.5278 18.0201 62.7216 17.2574 62.1333C16.4948 61.5232 15.6777 61.0874 14.8061 60.8259C13.9563 60.5644 13.1065 60.4337 12.2567 60.4337C10.8622 60.4337 9.63104 60.717 8.56334 61.2835C7.49565 61.8282 6.59137 62.5691 5.85052 63.506C5.13146 64.4212 4.58672 65.4562 4.2163 66.6111C3.84587 67.7441 3.66066 68.899 3.66066 70.0756C3.66066 71.3612 3.87856 72.5924 4.31435 73.769C4.75014 74.9456 5.36026 75.9915 6.14469 76.9067C6.92911 77.8001 7.84428 78.5191 8.89019 79.0639C9.95788 79.5868 11.1127 79.8483 12.3547 79.8483C13.2263 79.8483 14.1197 79.6958 15.0349 79.3907C15.95 79.0857 16.7998 78.6172 17.5843 77.9853C18.3905 77.3534 19.0333 76.5363 19.5127 75.534L21.4084 76.5145C20.929 77.6693 20.1881 78.6499 19.1858 79.4561C18.1835 80.2623 17.0613 80.8724 15.8193 81.2864C14.5991 81.7004 13.4007 81.9074 12.224 81.9074C10.6334 81.9074 9.17345 81.5697 7.84428 80.8942C6.51511 80.197 5.36026 79.2818 4.37972 78.1487C3.42097 76.9939 2.68012 75.7083 2.15717 74.2919C1.63422 72.8538 1.37274 71.4048 1.37274 69.9449Z" fill="white"/>
<path d="M32.1141 82.0382C30.8939 82.0382 29.7608 81.8094 28.7149 81.3518C27.6908 80.8724 26.7974 80.2296 26.0348 79.4234C25.2939 78.5954 24.7165 77.6585 24.3025 76.6126C23.8885 75.5449 23.6815 74.4227 23.6815 73.246C23.6815 72.0258 23.8885 70.8928 24.3025 69.8468C24.7165 68.7792 25.3048 67.8422 26.0674 67.036C26.8301 66.208 27.7235 65.5652 28.7476 65.1076C29.7935 64.6282 30.9265 64.3885 32.1468 64.3885C33.367 64.3885 34.4892 64.6282 35.5133 65.1076C36.5374 65.5652 37.4308 66.208 38.1934 67.036C38.9561 67.8422 39.5444 68.7792 39.9584 69.8468C40.3724 70.8928 40.5794 72.0258 40.5794 73.246C40.5794 74.4227 40.3724 75.5449 39.9584 76.6126C39.5444 77.6585 38.9561 78.5954 38.1934 79.4234C37.4526 80.2296 36.5592 80.8724 35.5133 81.3518C34.4892 81.8094 33.3561 82.0382 32.1141 82.0382ZM25.9367 73.2787C25.9367 74.5425 26.2091 75.6974 26.7538 76.7433C27.3204 77.7674 28.0721 78.5845 29.0091 79.1946C29.946 79.783 30.981 80.0771 32.1141 80.0771C33.2472 80.0771 34.2822 79.7721 35.2191 79.1619C36.1561 78.5518 36.9078 77.7238 37.4744 76.6779C38.0409 75.6102 38.3242 74.4554 38.3242 73.2134C38.3242 71.9496 38.0409 70.7947 37.4744 69.7488C36.9078 68.7029 36.1561 67.8749 35.2191 67.2648C34.2822 66.6547 33.2472 66.3496 32.1141 66.3496C30.981 66.3496 29.946 66.6656 29.0091 67.2975C28.0939 67.9294 27.353 68.7683 26.7865 69.8142C26.22 70.8383 25.9367 71.9931 25.9367 73.2787Z" fill="white"/>
<path d="M58.6123 81.7113H56.3898V72.2001C56.3898 70.1955 56.0956 68.7356 55.5073 67.8204C54.919 66.8835 53.9929 66.415 52.7291 66.415C51.8575 66.415 50.9968 66.6329 50.147 67.0687C49.2972 67.4827 48.5455 68.0601 47.8918 68.8009C47.2599 69.52 46.8023 70.348 46.519 71.285V81.7113H44.2965V64.6827H46.3229V68.5395C46.7805 67.7115 47.3797 66.9924 48.1206 66.3823C48.8614 65.7504 49.7003 65.2601 50.6373 64.9115C51.5742 64.5628 52.5439 64.3885 53.5462 64.3885C54.4832 64.3885 55.2785 64.5628 55.9322 64.9115C56.5859 65.2601 57.1088 65.7613 57.501 66.415C57.8933 67.0469 58.1765 67.8204 58.3508 68.7356C58.5252 69.629 58.6123 70.6313 58.6123 71.7426V81.7113Z" fill="white"/>
<path d="M70.7385 82.0382C69.4965 82.0382 68.3526 81.8094 67.3067 81.3518C66.2825 80.8724 65.3783 80.2187 64.5938 79.3907C63.8312 78.5627 63.232 77.6149 62.7962 76.5472C62.3822 75.4795 62.1752 74.3464 62.1752 73.148C62.1752 71.5356 62.5347 70.0647 63.2538 68.7356C63.9728 67.4064 64.9752 66.3496 66.2608 65.5652C67.5463 64.7807 69.028 64.3885 70.7059 64.3885C72.2965 64.3885 73.7019 64.759 74.9222 65.4998C76.1424 66.2189 77.0467 67.1994 77.635 68.4414L75.4778 69.1278C74.9984 68.2562 74.3229 67.5807 73.4514 67.1013C72.6016 66.6002 71.6537 66.3496 70.6078 66.3496C69.4747 66.3496 68.4397 66.6438 67.5028 67.2321C66.5658 67.8204 65.8141 68.6266 65.2475 69.6507C64.7028 70.6749 64.4304 71.8406 64.4304 73.148C64.4304 74.4336 64.7137 75.5993 65.2802 76.6452C65.8467 77.6911 66.5985 78.53 67.5355 79.1619C68.4724 79.7721 69.5074 80.0771 70.6405 80.0771C71.3813 80.0771 72.0895 79.9464 72.765 79.6849C73.4623 79.4234 74.0615 79.0748 74.5626 78.639C75.0856 78.1814 75.4342 77.6911 75.6085 77.1682L77.7984 77.8219C77.4933 78.6281 76.9813 79.3581 76.2622 80.0117C75.565 80.6436 74.7369 81.1448 73.7782 81.5152C72.8412 81.8639 71.828 82.0382 70.7385 82.0382Z" fill="white"/>
<path d="M81.29 81.7113V64.6827H83.5126V81.7113H81.29ZM81.29 61.1201V57.8516H83.5126V61.1201H81.29Z" fill="white"/>
<path d="M95.7619 82.0382C94.5417 82.0382 93.4086 81.8094 92.3627 81.3518C91.3168 80.8724 90.4125 80.2296 89.6499 79.4234C88.8872 78.5954 88.288 77.6476 87.8522 76.5799C87.4382 75.5122 87.2312 74.3682 87.2312 73.148C87.2312 71.5573 87.5907 70.0974 88.3098 68.7683C89.0507 67.4391 90.0639 66.3823 91.3495 65.5979C92.6351 64.7916 94.095 64.3885 95.7292 64.3885C97.407 64.3885 98.8669 64.7916 100.109 65.5979C101.373 66.4041 102.364 67.4718 103.083 68.8009C103.802 70.1083 104.162 71.5464 104.162 73.1153C104.162 73.2896 104.162 73.4639 104.162 73.6383C104.162 73.7908 104.151 73.9106 104.129 73.9978H89.5518C89.6608 75.218 89.9985 76.3075 90.565 77.2662C91.1534 78.2032 91.9051 78.9549 92.8203 79.5215C93.7572 80.0662 94.7704 80.3386 95.8599 80.3386C96.9712 80.3386 98.0171 80.0553 98.9976 79.4888C100 78.9223 100.697 78.1814 101.089 77.2662L103.018 77.7892C102.669 78.5954 102.135 79.3254 101.416 79.9791C100.697 80.6327 99.8474 81.1448 98.8669 81.5152C97.9082 81.8639 96.8732 82.0382 95.7619 82.0382ZM89.4864 72.3962H102.07C101.983 71.1542 101.645 70.0647 101.057 69.1278C100.49 68.1908 99.7385 67.4609 98.8015 66.9379C97.8864 66.3932 96.8732 66.1208 95.7619 66.1208C94.6506 66.1208 93.6374 66.3932 92.7222 66.9379C91.807 67.4609 91.0553 68.2017 90.467 69.1605C89.9005 70.0974 89.5736 71.176 89.4864 72.3962Z" fill="white"/>
<path d="M116.089 66.6438C114.607 66.6873 113.3 67.1013 112.167 67.8858C111.055 68.6702 110.271 69.7488 109.813 71.1215V81.7113H107.591V64.6827H109.683V68.7683C110.271 67.5698 111.045 66.6002 112.003 65.8593C112.984 65.1185 114.019 64.7045 115.108 64.6173C115.326 64.5955 115.511 64.5846 115.664 64.5846C115.838 64.5846 115.98 64.5955 116.089 64.6173V66.6438Z" fill="white"/>
<path d="M125.434 81.9401C124.279 81.9401 123.211 81.7004 122.231 81.2211C121.25 80.7417 120.4 80.0989 119.681 79.2927C118.984 78.4647 118.439 77.5277 118.047 76.4818C117.655 75.4359 117.459 74.3573 117.459 73.246C117.459 72.0476 117.644 70.9254 118.014 69.8795C118.407 68.8118 118.951 67.864 119.649 67.036C120.368 66.208 121.207 65.5652 122.165 65.1076C123.124 64.6282 124.192 64.3885 125.368 64.3885C126.828 64.3885 128.092 64.759 129.16 65.4998C130.249 66.2407 131.165 67.1558 131.905 68.2453V64.6827H133.899V81.7767C133.899 83.3456 133.518 84.6638 132.755 85.7315C132.014 86.821 131.001 87.6381 129.716 88.1829C128.452 88.7276 127.068 89 125.565 89C123.625 89 122.056 88.6514 120.858 87.9541C119.66 87.2568 118.679 86.3199 117.916 85.1432L119.289 84.0646C119.965 85.1323 120.858 85.9276 121.969 86.4506C123.102 86.9736 124.301 87.235 125.565 87.235C126.676 87.235 127.689 87.028 128.604 86.614C129.541 86.2218 130.282 85.6226 130.827 84.8164C131.393 84.0102 131.677 82.9969 131.677 81.7767V78.4102C131.023 79.4779 130.13 80.3386 128.996 80.9923C127.863 81.6242 126.676 81.9401 125.434 81.9401ZM126.055 80.0771C126.73 80.0771 127.373 79.9573 127.983 79.7176C128.615 79.4779 129.193 79.1619 129.716 78.7697C130.238 78.3557 130.674 77.8981 131.023 77.397C131.372 76.8958 131.589 76.3838 131.677 75.8608V70.5986C131.35 69.7706 130.881 69.0406 130.271 68.4087C129.661 67.755 128.964 67.2539 128.179 66.9052C127.417 66.5348 126.621 66.3496 125.793 66.3496C124.835 66.3496 123.974 66.5566 123.211 66.9706C122.47 67.3628 121.839 67.8967 121.316 68.5722C120.814 69.2258 120.422 69.9667 120.139 70.7947C119.856 71.6227 119.714 72.4507 119.714 73.2787C119.714 74.1939 119.877 75.0655 120.204 75.8935C120.531 76.6997 120.978 77.4297 121.544 78.0834C122.133 78.7153 122.808 79.2055 123.571 79.5542C124.355 79.9028 125.183 80.0771 126.055 80.0771Z" fill="white"/>
<path d="M146.161 82.0382C144.941 82.0382 143.808 81.8094 142.762 81.3518C141.716 80.8724 140.812 80.2296 140.049 79.4234C139.287 78.5954 138.687 77.6476 138.252 76.5799C137.838 75.5122 137.631 74.3682 137.631 73.148C137.631 71.5573 137.99 70.0974 138.709 68.7683C139.45 67.4391 140.463 66.3823 141.749 65.5979C143.034 64.7916 144.494 64.3885 146.129 64.3885C147.806 64.3885 149.266 64.7916 150.508 65.5979C151.772 66.4041 152.763 67.4718 153.483 68.8009C154.202 70.1083 154.561 71.5464 154.561 73.1153C154.561 73.2896 154.561 73.4639 154.561 73.6383C154.561 73.7908 154.55 73.9106 154.528 73.9978H139.951C140.06 75.218 140.398 76.3075 140.964 77.2662C141.553 78.2032 142.304 78.9549 143.22 79.5215C144.157 80.0662 145.17 80.3386 146.259 80.3386C147.371 80.3386 148.416 80.0553 149.397 79.4888C150.399 78.9223 151.097 78.1814 151.489 77.2662L153.417 77.7892C153.069 78.5954 152.535 79.3254 151.816 79.9791C151.097 80.6327 150.247 81.1448 149.266 81.5152C148.307 81.8639 147.272 82.0382 146.161 82.0382ZM139.886 72.3962H152.469C152.382 71.1542 152.044 70.0647 151.456 69.1278C150.89 68.1908 150.138 67.4609 149.201 66.9379C148.286 66.3932 147.272 66.1208 146.161 66.1208C145.05 66.1208 144.037 66.3932 143.122 66.9379C142.206 67.4609 141.455 68.2017 140.866 69.1605C140.3 70.0974 139.973 71.176 139.886 72.3962Z" fill="white"/>
<defs>
<clipPath id="clip0_54_307">
<rect width="156.159" height="47.211" fill="white"/>
</clipPath>
</defs>
</svg>
